<svg width="30" height="16" viewBox="0 0 30 16" fill="none" xmlns="http://www.w3.org/2000/svg">
<g clip-path="url(#clip0_10_150)">
<g clip-path="url(#clip1_10_150)">
<g clip-path="url(#clip2_10_150)">
<g filter="url(#filter0_dd_10_150)">
<path d="M26.7568 1.2135H2.43243C1.08904 1.2135 0 2.30254 0 3.64593V11.754C0 13.0974 1.08904 14.1865 2.43243 14.1865H26.7568C28.1002 14.1865 29.1892 13.0974 29.1892 11.754V3.64593C29.1892 2.30254 28.1002 1.2135 26.7568 1.2135Z" fill="#FFDF00"/>
</g>
<path d="M4.07138 10.9433V4.15191H6.69841C7.02922 4.15191 7.32435 4.2038 7.58381 4.30759C7.84327 4.40489 8.06057 4.54759 8.23572 4.7357C8.41734 4.9238 8.55356 5.15083 8.64437 5.41678C8.73518 5.68272 8.78059 5.9811 8.78059 6.31191C8.78059 6.64272 8.73518 6.9411 8.64437 7.20705C8.55356 7.47299 8.41734 7.70002 8.23572 7.88813C8.06057 8.07624 7.84327 8.22218 7.58381 8.32597C7.32435 8.42326 7.02922 8.47191 6.69841 8.47191H5.54057V10.9433H4.07138ZM5.54057 7.29462H6.32868C6.67246 7.29462 6.90922 7.22975 7.03895 7.10002C7.17516 6.97029 7.24327 6.75624 7.24327 6.45786V6.16597C7.24327 5.86759 7.17516 5.65353 7.03895 5.5238C6.90922 5.39408 6.67246 5.32921 6.32868 5.32921H5.54057V7.29462ZM10.0611 10.9433V4.15191H11.5303V9.74651H14.4492V10.9433H10.0611ZM16.9946 4.15191V8.45245C16.9946 8.66651 17.0011 8.86435 17.014 9.04597C17.0335 9.2211 17.0724 9.37029 17.1308 9.49353C17.1957 9.61678 17.2897 9.71407 17.413 9.78543C17.5362 9.85029 17.7049 9.88272 17.9189 9.88272C18.133 9.88272 18.3016 9.85029 18.4249 9.78543C18.5481 9.71407 18.6389 9.61678 18.6973 9.49353C18.7622 9.37029 18.8011 9.2211 18.814 9.04597C18.8335 8.86435 18.8432 8.66651 18.8432 8.45245V4.15191H20.3027V8.25786C20.3027 8.72489 20.2703 9.13353 20.2054 9.4838C20.147 9.83407 20.0303 10.126 19.8551 10.3595C19.68 10.593 19.4367 10.7681 19.1254 10.8849C18.814 11.0016 18.4119 11.06 17.9189 11.06C17.4259 11.06 17.0238 11.0016 16.7124 10.8849C16.4011 10.7681 16.1578 10.593 15.9827 10.3595C15.8076 10.126 15.6876 9.83407 15.6227 9.4838C15.5643 9.13353 15.5351 8.72489 15.5351 8.25786V4.15191H16.9946ZM23.6459 11.06C23.0751 11.06 22.5789 10.966 22.1573 10.7779C21.7356 10.5898 21.3951 10.3335 21.1356 10.0092L21.9821 9.07516C22.2286 9.34759 22.4978 9.54867 22.7897 9.6784C23.0881 9.80813 23.3897 9.87299 23.6946 9.87299C24.0448 9.87299 24.3108 9.79516 24.4924 9.63948C24.674 9.48381 24.7648 9.26002 24.7648 8.96813C24.7648 8.72813 24.6935 8.54651 24.5508 8.42326C24.4146 8.30002 24.181 8.21245 23.8502 8.16056L23.14 8.0438C22.5302 7.94002 22.0892 7.71624 21.8167 7.37245C21.5443 7.02218 21.4081 6.59732 21.4081 6.09786C21.4081 5.44272 21.6221 4.93678 22.0502 4.58002C22.4783 4.21678 23.0783 4.03516 23.8502 4.03516C24.3756 4.03516 24.8329 4.11624 25.2221 4.2784C25.6113 4.44056 25.9259 4.6611 26.1659 4.94002L25.3389 5.86435C25.1573 5.66326 24.9432 5.50759 24.6967 5.39732C24.4502 5.28056 24.1713 5.22218 23.86 5.22218C23.2048 5.22218 22.8773 5.49137 22.8773 6.02975C22.8773 6.26326 22.9486 6.4384 23.0913 6.55516C23.2405 6.67191 23.4805 6.75948 23.8113 6.81786L24.5216 6.94435C25.0729 7.04164 25.4978 7.24921 25.7962 7.56705C26.0946 7.88489 26.2437 8.31299 26.2437 8.85137C26.2437 9.16921 26.1886 9.46435 26.0783 9.73678C25.9681 10.0027 25.8027 10.2362 25.5821 10.4373C25.3616 10.6319 25.0892 10.7843 24.7648 10.8946C24.447 11.0049 24.074 11.06 23.6459 11.06Z" fill="black"/>
</g>
</g>
</g>
<defs>
<filter id="filter0_dd_10_150" x="0" y="1.2135" width="30" height="13.7838" filterUnits="userSpaceOnUse" color-interpolation-filters="sRGB">
<feFlood flood-opacity="0" result="BackgroundImageFix"/>
<feColorMatrix in="SourceAlpha" type="matrix" values="0 0 0 0 0 0 0 0 0 0 0 0 0 0 0 0 0 0 127 0" result="hardAlpha"/>
<feOffset dx="0.810811" dy="0.810811"/>
<feColorMatrix type="matrix" values="0 0 0 0 0.566667 0 0 0 0 0.495195 0 0 0 0 0 0 0 0 1 0"/>
<feBlend mode="normal" in2="BackgroundImageFix" result="effect1_dropShadow_10_150"/>
<feColorMatrix in="SourceAlpha" type="matrix" values="0 0 0 0 0 0 0 0 0 0 0 0 0 0 0 0 0 0 127 0" result="hardAlpha"/>
<feOffset dx="0.810811" dy="0.810811"/>
<feComposite in2="hardAlpha" operator="out"/>
<feColorMatrix type="matrix" values="0 0 0 0 1 0 0 0 0 1 0 0 0 0 1 0 0 0 1 0"/>
<feBlend mode="normal" in2="effect1_dropShadow_10_150" result="effect2_dropShadow_10_150"/>
<feBlend mode="normal" in="SourceGraphic" in2="effect2_dropShadow_10_150" result="shape"/>
</filter>
<clipPath id="clip0_10_150">
<rect width="30" height="15" fill="white" transform="translate(0 0.200012)"/>
</clipPath>
<clipPath id="clip1_10_150">
<rect width="30" height="15" fill="white" transform="translate(0 0.200012)"/>
</clipPath>
<clipPath id="clip2_10_150">
<rect width="30" height="14.5946" fill="white" transform="translate(0 0.40271)"/>
</clipPath>
</defs>
</svg>
